<?xml version="1.0" encoding="UTF-8" standalone="no"?>
<!-- Created with Inkscape (http://www.inkscape.org/) -->

<svg
   xmlns:dc="http://purl.org/dc/elements/1.1/"
   xmlns:cc="http://creativecommons.org/ns#"
   xmlns:rdf="http://www.w3.org/1999/02/22-rdf-syntax-ns#"
   xmlns:svg="http://www.w3.org/2000/svg"
   xmlns="http://www.w3.org/2000/svg"
   xmlns:sodipodi="http://sodipodi.sourceforge.net/DTD/sodipodi-0.dtd"
   xmlns:inkscape="http://www.inkscape.org/namespaces/inkscape"
   width="48"
   height="48"
   viewBox="0 0 12.7 12.7"
   version="1.1"
   id="svg8"
   inkscape:version="0.92.2 (5c3e80d, 2017-08-06)"
   sodipodi:docname="icon_v3.svg">
  <defs
     id="defs2" />
  <sodipodi:namedview
     id="base"
     pagecolor="#ffffff"
     bordercolor="#666666"
     borderopacity="1.0"
     inkscape:pageopacity="0.0"
     inkscape:pageshadow="2"
     inkscape:zoom="8.0000004"
     inkscape:cx="1.6557181"
     inkscape:cy="48.282836"
     inkscape:document-units="mm"
     inkscape:current-layer="layer1"
     showgrid="false"
     units="px"
     inkscape:window-width="1920"
     inkscape:window-height="1017"
     inkscape:window-x="1352"
     inkscape:window-y="-8"
     inkscape:window-maximized="1" />
  <metadata
     id="metadata5">
    <rdf:RDF>
      <cc:Work
         rdf:about="">
        <dc:format>image/svg+xml</dc:format>
        <dc:type
           rdf:resource="http://purl.org/dc/dcmitype/StillImage" />
        <dc:title />
      </cc:Work>
    </rdf:RDF>
  </metadata>
  <g
     inkscape:label="Capa 1"
     inkscape:groupmode="layer"
     id="layer1"
     transform="translate(0,-284.29998)">
    <path
       style="fill:#990099;stroke-width:0.0129358;fill-opacity:1"
       d="m 2.4662806,296.41882 v -0.58211 l 0.8634645,-10e-4 c 0.7718075,-0.001 0.8502286,-0.004 0.7387737,-0.0184 -0.2667593,-0.0364 -0.525705,-0.1313 -0.7025127,-0.25747 -0.099548,-0.0711 -0.244905,-0.22568 -0.3024864,-0.32181 -0.1282151,-0.21406 -0.1813816,-0.41193 -0.1918584,-0.71403 -0.016838,-0.48549 0.1203551,-1.01006 0.4296616,-1.64284 0.265753,-0.54367 0.7058925,-1.18985 1.1930053,-1.75146 0.1395508,-0.1609 0.536875,-0.58413 0.5428022,-0.5782 0.00277,0.002 -0.015429,0.0457 -0.040439,0.0953 -0.2467515,0.48999 -0.4977607,1.15954 -0.6283265,1.67603 -0.2482987,0.98222 -0.1993025,1.73979 0.1457059,2.2529 0.028704,0.0427 0.1021379,0.12906 0.163187,0.19196 0.2823011,0.29082 0.6779357,0.45981 1.2364134,0.52811 0.1669184,0.0204 0.6997801,0.0204 0.8666984,0 0.5470828,-0.0669 0.9267256,-0.22475 1.2127393,-0.50421 0.2733802,-0.26712 0.4232003,-0.60441 0.4751142,-1.06962 0.080719,-0.72335 -0.1781042,-1.81345 -0.6879786,-2.89763 -0.063574,-0.13518 -0.1185102,-0.25451 -0.1220814,-0.26518 -0.013319,-0.0398 0.4398086,0.44794 0.6550472,0.70508 0.855488,1.02206 1.3829422,2.0455 1.4966449,2.90401 0.026064,0.1968 0.016191,0.51547 -0.02099,0.67742 -0.028846,0.12566 -0.091303,0.28042 -0.1583438,0.39233 -0.057582,0.0961 -0.2029385,0.25078 -0.3024866,0.32181 -0.1768078,0.12618 -0.4357535,0.22108 -0.7025127,0.25748 -0.1114544,0.0152 -0.033034,0.0172 0.7387738,0.0184 l 0.8634651,10e-4 v 0.58211 0.58212 H 6.3470203 2.4662806 Z m 3.5638126,-1.37333 c -0.3405918,-0.0385 -0.6846512,-0.15853 -0.9383077,-0.32739 -0.32463,-0.21613 -0.5237337,-0.52228 -0.5508134,-0.847 l -0.00849,-0.10183 0.2249058,-0.10871 c 0.7946581,-0.38421 1.0806307,-0.71129 1.1707061,-1.33898 0.031584,-0.22009 0.031603,-0.65214 3.89e-5,-0.82484 -0.083478,-0.45673 -0.3079146,-0.95525 -0.6497362,-1.44321 -0.070983,-0.10136 -0.1082904,-0.14264 -0.1441878,-0.15963 -0.1009035,-0.0477 -0.2614293,-0.16549 -0.3624264,-0.26582 -0.3233909,-0.32123 -0.4816512,-0.78339 -0.4667067,-1.36293 0.00393,-0.15243 0.00189,-0.17589 -0.014847,-0.1708 -1.015181,0.3084 -1.8790402,0.69756 -2.7359212,1.2325 -0.4936436,0.30818 -1.05823802,0.73851 -1.39375804,1.06234 -0.07652355,0.0738 -0.13913384,0.13038 -0.13913384,0.12562 0,-0.0152 0.15603876,-0.24249 0.26283955,-0.3828 0.54203523,-0.7121 1.29025003,-1.40511 2.11851463,-1.96222 1.7868298,-1.20184 3.9552921,-1.84324 6.4277743,-1.90123 l 0.3685204,-0.008 0.1683153,-0.1573 c 0.3119854,-0.29156 0.587469,-0.61305 0.7356841,-0.85854 0.03458,-0.0573 0.08486,-0.16792 0.111744,-0.2459 0.05597,-0.16237 0.05969,-0.16985 0.08453,-0.16985 0.03964,0 0.07313,0.11097 0.09738,0.3228 0.01943,0.16966 0.0083,0.6275 -0.01852,0.76381 -0.0105,0.0534 -0.02262,0.11453 -0.02691,0.13583 -0.01047,0.052 0.0075,0.0768 0.04829,0.0666 0.08702,-0.0218 0.39251,-0.36891 0.616488,-0.70039 0.203425,-0.30108 0.306059,-0.49384 0.36898,-0.69302 0.0401,-0.12693 0.05396,-0.15429 0.07821,-0.15429 0.03991,0 0.07337,0.1105 0.09761,0.32209 0.02105,0.18393 0.0095,0.61751 -0.02065,0.77099 -0.0306,0.15602 -0.03106,0.19225 -0.0025,0.19793 0.04741,0.009 0.228213,-0.20601 0.426777,-0.5086 0.240934,-0.36713 0.400714,-0.68301 0.469141,-0.92746 0.01139,-0.0407 0.03143,-0.0872 0.04454,-0.10337 0.02294,-0.0284 0.02483,-0.0286 0.0492,-0.006 0.0801,0.0725 0.150544,0.56488 0.151218,1.05698 3.7e-4,0.27044 -0.0021,0.30298 -0.03564,0.45923 -0.175697,0.81967 -0.574874,1.75346 -1.056717,2.47195 -0.373061,0.55628 -0.820913,1.03258 -1.300586,1.3832 -0.7021449,0.51323 -1.5286457,0.80325 -2.3927566,0.83959 l -0.1681654,0.007 0.12289,-0.0242 c 0.6313466,-0.12427 1.1135738,-0.49573 1.4080801,-1.08466 0.1901428,-0.38024 0.292898,-0.8348 0.3198479,-1.4149 l 0.00879,-0.1892 -0.082509,-0.014 c -0.2697842,-0.0459 -0.8121906,-0.11192 -1.0429913,-0.1268 -0.1091865,-0.007 -0.1325447,-0.006 -0.1323238,0.009 1.467e-4,0.01 0.012042,0.088 0.026431,0.17334 0.014389,0.0853 0.029576,0.25129 0.033749,0.36868 0.027406,0.77103 -0.2370221,1.32746 -0.777108,1.63524 -0.084379,0.0481 -0.1097324,0.0713 -0.1722842,0.15811 -0.270123,0.37468 -0.4994599,0.82703 -0.6040292,1.19141 -0.076137,0.26529 -0.091067,0.37849 -0.090037,0.68254 0.00319,0.94032 0.2658307,1.3205 1.230374,1.78102 l 0.1881311,0.0898 -0.00801,0.0929 c -0.028923,0.33585 -0.2226663,0.63764 -0.5486854,0.85469 -0.2661284,0.17716 -0.5951415,0.29006 -0.9631799,0.3305 -0.1467911,0.0161 -0.4635407,0.0154 -0.6117262,-10e-4 z m 0.6726615,-5.58619 c 0.5493896,-0.12225 0.7626233,-0.57484 0.6124746,-1.29998 -0.02614,-0.12625 -0.1283776,-0.46051 -0.1519741,-0.49687 -0.00974,-0.0151 -0.048182,-0.0169 -0.2171894,-0.0107 -0.2196665,0.008 -0.5760959,0.0349 -0.5850882,0.043 -0.00299,0.002 0.080584,0.20574 0.1857318,0.45116 l 0.1911782,0.44623 -0.1912024,0.44628 c -0.1051619,0.24547 -0.1950106,0.44629 -0.1996649,0.44629 -0.00465,0 -0.094514,-0.20085 -0.1996882,-0.44633 l -0.1912255,-0.44635 0.189326,-0.44158 c 0.1041293,-0.24287 0.1863808,-0.44453 0.1827811,-0.44813 -0.011857,-0.0119 -0.6603541,0.073 -0.823784,0.10788 -0.030899,0.007 -0.037836,0.0203 -0.073849,0.14562 -0.1135468,0.39525 -0.1294787,0.72298 -0.047725,0.98178 0.097673,0.30918 0.3534747,0.49554 0.7507245,0.54692 0.1376193,0.0178 0.4338493,0.005 0.5691752,-0.0256 z m -2.1538105,1.07271 c -0.7271437,-0.0392 -1.2851415,-0.20082 -1.6277392,-0.47173 -0.2575573,-0.20366 -0.3907969,-0.47905 -0.374032,-0.77308 0.00557,-0.0977 0.013265,-0.12768 0.053823,-0.20975 0.076779,-0.15534 0.1876287,-0.22813 0.3503775,-0.23006 0.1103104,-0.001 0.1960226,0.0258 0.305465,0.0965 0.1545704,0.0999 0.2617508,0.22915 0.4187236,0.5049 0.1291919,0.22694 0.2385338,0.37292 0.4006636,0.53494 0.2512466,0.25107 0.5396287,0.4257 0.8518366,0.51584 l 0.1022885,0.0296 -0.069304,0.008 c -0.079675,0.01 -0.1509291,0.008 -0.4121023,-0.006 z"
       id="path827"
       inkscape:connector-curvature="0" />
  </g>
</svg>
